<svg width="1349" height="605" viewBox="0 0 1349 605" fill="none" xmlns="http://www.w3.org/2000/svg">
<path d="M256.768 320.5L285.568 227.06H320.128L348.928 320.5H320.768L302.976 248.82H302.72L284.928 320.5H256.768ZM277.888 303.22V282.1H327.808V303.22H277.888ZM357.43 320.5V227.06H383.67V298.74H427.83V320.5H357.43ZM438.555 320.5V227.06H506.395V247.54H464.155V262.644H503.835V282.356H464.155V300.02H506.395V320.5H438.555ZM520.555 320.5V227.06H588.395V247.54H546.155V262.644H585.835V282.356H546.155V300.02H588.395V320.5H520.555ZM602.555 320.5V227.06H628.155L656.059 276.98H656.315V227.06H681.915V320.5H656.315L628.411 270.58H628.155V320.5H602.555ZM762.555 321.78C758.374 321.78 753.382 321.609 747.579 321.268C741.776 320.927 736.102 320.5 730.555 319.988V227.572C736.102 227.06 741.776 226.633 747.579 226.292C753.382 225.951 758.374 225.78 762.555 225.78C774.075 225.78 783.291 227.359 790.203 230.516C797.115 233.673 802.107 238.793 805.179 245.876C808.336 252.873 809.915 262.175 809.915 273.78C809.915 285.385 808.336 294.729 805.179 301.812C802.107 308.809 797.115 313.887 790.203 317.044C783.291 320.201 774.075 321.78 762.555 321.78ZM764.219 301.3C769.51 301.3 773.563 300.575 776.379 299.124C779.195 297.588 781.115 294.857 782.139 290.932C783.163 286.921 783.675 281.204 783.675 273.78C783.675 266.271 783.163 260.553 782.139 256.628C781.115 252.703 779.195 250.015 776.379 248.564C773.563 247.028 769.51 246.26 764.219 246.26C762.427 246.26 759.995 246.345 756.923 246.516C753.936 246.601 749.84 246.857 744.635 247.284L756.155 236.02V311.54L744.635 300.276C749.84 300.617 753.936 300.873 756.923 301.044C759.995 301.215 762.427 301.3 764.219 301.3ZM873.91 320.5V227.06H899.51V320.5H873.91ZM821.43 320.5V227.06H847.03V320.5H821.43ZM834.23 283.38V261.62H886.71V283.38H834.23ZM908.018 320.5L936.818 227.06H971.378L1000.18 320.5H972.018L954.226 248.82H953.97L936.178 320.5H908.018ZM929.138 303.22V282.1H979.058V303.22H929.138ZM1008.68 227.572C1012.35 227.231 1016.15 226.932 1020.07 226.676C1024.08 226.42 1027.92 226.207 1031.59 226.036C1035.26 225.865 1038.38 225.78 1040.94 225.78C1055.36 225.78 1065.94 228.34 1072.68 233.46C1079.51 238.495 1082.92 246.345 1082.92 257.012C1082.92 267.679 1079.51 275.572 1072.68 280.692C1065.94 285.727 1055.36 288.244 1040.94 288.244C1038.12 288.244 1034.92 288.159 1031.34 287.988C1027.84 287.817 1024.64 287.647 1021.74 287.476L1022.76 267.764C1025.92 268.276 1029.37 268.703 1033.13 269.044C1036.88 269.385 1039.91 269.556 1042.22 269.556C1047.25 269.556 1050.92 268.617 1053.22 266.74C1055.53 264.863 1056.68 261.919 1056.68 257.908C1056.68 253.897 1055.53 250.953 1053.22 249.076C1050.92 247.199 1047.25 246.26 1042.22 246.26C1039.91 246.26 1036.88 246.431 1033.13 246.772C1029.37 247.113 1025.92 247.54 1022.76 248.052L1034.28 236.02V320.5H1008.68V227.572ZM1060.14 320.5L1026.98 278.644H1054.89L1089.32 320.5H1060.14ZM584.555 413.9C582.368 413.9 580.275 413.673 578.275 413.22C576.275 412.767 574.622 412.14 573.315 411.34L574.995 404.54C575.928 405.047 576.982 405.513 578.155 405.94C579.355 406.367 580.555 406.7 581.755 406.94C582.982 407.18 584.088 407.3 585.075 407.3C586.248 407.3 587.142 407.113 587.755 406.74C588.368 406.367 588.675 405.82 588.675 405.1C588.675 404.753 588.582 404.447 588.395 404.18C588.208 403.887 587.888 403.62 587.435 403.38C586.982 403.113 586.342 402.847 585.515 402.58C584.715 402.287 583.688 401.967 582.435 401.62C580.862 401.193 579.502 400.687 578.355 400.1C577.208 399.513 576.262 398.847 575.515 398.1C574.768 397.353 574.208 396.513 573.835 395.58C573.488 394.647 573.315 393.62 573.315 392.5C573.315 389.727 574.382 387.607 576.515 386.14C578.675 384.647 581.755 383.9 585.755 383.9C587.702 383.9 589.622 384.073 591.515 384.42C593.435 384.74 595.102 385.207 596.515 385.82L594.835 392.62C593.395 391.927 591.875 391.407 590.275 391.06C588.702 390.687 587.155 390.5 585.635 390.5C584.302 390.5 583.315 390.66 582.675 390.98C582.035 391.273 581.715 391.767 581.715 392.46C581.715 392.833 581.795 393.18 581.955 393.5C582.115 393.793 582.408 394.073 582.835 394.34C583.262 394.607 583.848 394.887 584.595 395.18C585.368 395.473 586.355 395.793 587.555 396.14C589.262 396.647 590.715 397.193 591.915 397.78C593.115 398.367 594.088 399.02 594.835 399.74C595.608 400.433 596.168 401.233 596.515 402.14C596.888 403.02 597.075 404.007 597.075 405.1C597.075 407.927 595.982 410.1 593.795 411.62C591.635 413.14 588.555 413.9 584.555 413.9ZM614.525 413.9C611.352 413.9 608.618 413.313 606.325 412.14C604.058 410.94 602.325 409.22 601.125 406.98C599.925 404.74 599.325 402.047 599.325 398.9C599.325 395.753 599.925 393.06 601.125 390.82C602.325 388.58 604.058 386.873 606.325 385.7C608.618 384.5 611.352 383.9 614.525 383.9C617.725 383.9 620.458 384.5 622.725 385.7C624.992 386.873 626.725 388.58 627.925 390.82C629.125 393.06 629.725 395.753 629.725 398.9C629.725 402.047 629.125 404.74 627.925 406.98C626.725 409.22 624.992 410.94 622.725 412.14C620.458 413.313 617.725 413.9 614.525 413.9ZM614.525 407.1C616.072 407.1 617.365 406.793 618.405 406.18C619.445 405.567 620.218 404.66 620.725 403.46C621.258 402.233 621.525 400.713 621.525 398.9C621.525 397.087 621.258 395.58 620.725 394.38C620.218 393.153 619.445 392.233 618.405 391.62C617.365 391.007 616.072 390.7 614.525 390.7C612.978 390.7 611.685 391.007 610.645 391.62C609.605 392.233 608.818 393.153 608.285 394.38C607.778 395.58 607.525 397.087 607.525 398.9C607.525 400.713 607.778 402.233 608.285 403.46C608.818 404.66 609.605 405.567 610.645 406.18C611.685 406.793 612.978 407.1 614.525 407.1ZM633.338 413.5V384.3H654.938V390.9H641.338V396.3H654.138V402.7H641.338V413.5H633.338ZM666.349 413.5V391.1H658.069V384.3H682.869V391.1H674.589V413.5H666.349ZM691.374 413.5L685.374 384.3H693.574L696.334 405.1H696.414L698.974 386.7H708.574L711.134 405.1H711.214L713.974 384.3H722.174L716.174 413.5H706.574L703.814 395.1H703.734L700.974 413.5H691.374ZM721.373 413.5L730.373 384.3H741.173L750.173 413.5H741.373L735.813 391.1H735.733L730.173 413.5H721.373ZM727.973 408.1V401.5H743.573V408.1H727.973ZM752.83 384.46C753.976 384.353 755.163 384.26 756.39 384.18C757.643 384.1 758.843 384.033 759.99 383.98C761.136 383.927 762.11 383.9 762.91 383.9C767.416 383.9 770.723 384.7 772.83 386.3C774.963 387.873 776.03 390.327 776.03 393.66C776.03 396.993 774.963 399.46 772.83 401.06C770.723 402.633 767.416 403.42 762.91 403.42C762.03 403.42 761.03 403.393 759.91 403.34C758.816 403.287 757.816 403.233 756.91 403.18L757.23 397.02C758.216 397.18 759.296 397.313 760.47 397.42C761.643 397.527 762.59 397.58 763.31 397.58C764.883 397.58 766.03 397.287 766.75 396.7C767.47 396.113 767.83 395.193 767.83 393.94C767.83 392.687 767.47 391.767 766.75 391.18C766.03 390.593 764.883 390.3 763.31 390.3C762.59 390.3 761.643 390.353 760.47 390.46C759.296 390.567 758.216 390.7 757.23 390.86L760.83 387.1V413.5H752.83V384.46ZM768.91 413.5L758.55 400.42H767.27L778.03 413.5H768.91ZM781.384 413.5V384.3H802.584V390.7H789.384V395.42H801.784V401.58H789.384V407.1H802.584V413.5H781.384ZM827.4 413.9C826.093 413.9 824.533 413.847 822.72 413.74C820.907 413.633 819.133 413.5 817.4 413.34V384.46C819.133 384.3 820.907 384.167 822.72 384.06C824.533 383.953 826.093 383.9 827.4 383.9C831 383.9 833.88 384.393 836.04 385.38C838.2 386.367 839.76 387.967 840.72 390.18C841.707 392.367 842.2 395.273 842.2 398.9C842.2 402.527 841.707 405.447 840.72 407.66C839.76 409.847 838.2 411.433 836.04 412.42C833.88 413.407 831 413.9 827.4 413.9ZM827.92 407.5C829.573 407.5 830.84 407.273 831.72 406.82C832.6 406.34 833.2 405.487 833.52 404.26C833.84 403.007 834 401.22 834 398.9C834 396.553 833.84 394.767 833.52 393.54C833.2 392.313 832.6 391.473 831.72 391.02C830.84 390.54 829.573 390.3 827.92 390.3C827.36 390.3 826.6 390.327 825.64 390.38C824.707 390.407 823.427 390.487 821.8 390.62L825.4 387.1V410.7L821.8 407.18C823.427 407.287 824.707 407.367 825.64 407.42C826.6 407.473 827.36 407.5 827.92 407.5ZM845.798 413.5V384.3H866.998V390.7H853.798V395.42H866.198V401.58H853.798V407.1H866.998V413.5H845.798ZM878.063 413.5L869.263 384.3H878.063L883.223 405.5H883.303L888.463 384.3H897.263L888.463 413.5H878.063ZM899.9 413.5V384.3H921.1V390.7H907.9V395.42H920.3V401.58H907.9V407.1H921.1V413.5H899.9ZM925.525 413.5V384.3H933.725V406.7H947.525V413.5H925.525ZM962.845 413.9C959.672 413.9 956.939 413.313 954.645 412.14C952.379 410.94 950.645 409.22 949.445 406.98C948.245 404.74 947.645 402.047 947.645 398.9C947.645 395.753 948.245 393.06 949.445 390.82C950.645 388.58 952.379 386.873 954.645 385.7C956.939 384.5 959.672 383.9 962.845 383.9C966.045 383.9 968.779 384.5 971.045 385.7C973.312 386.873 975.045 388.58 976.245 390.82C977.445 393.06 978.045 395.753 978.045 398.9C978.045 402.047 977.445 404.74 976.245 406.98C975.045 409.22 973.312 410.94 971.045 412.14C968.779 413.313 966.045 413.9 962.845 413.9ZM962.845 407.1C964.392 407.1 965.685 406.793 966.725 406.18C967.765 405.567 968.539 404.66 969.045 403.46C969.579 402.233 969.845 400.713 969.845 398.9C969.845 397.087 969.579 395.58 969.045 394.38C968.539 393.153 967.765 392.233 966.725 391.62C965.685 391.007 964.392 390.7 962.845 390.7C961.299 390.7 960.005 391.007 958.965 391.62C957.925 392.233 957.139 393.153 956.605 394.38C956.099 395.58 955.845 397.087 955.845 398.9C955.845 400.713 956.099 402.233 956.605 403.46C957.139 404.66 957.925 405.567 958.965 406.18C960.005 406.793 961.299 407.1 962.845 407.1ZM981.658 384.46C982.751 384.353 983.898 384.26 985.098 384.18C986.298 384.1 987.444 384.033 988.538 383.98C989.658 383.927 990.591 383.9 991.338 383.9C995.844 383.9 999.218 384.82 1001.46 386.66C1003.72 388.5 1004.86 391.247 1004.86 394.9C1004.86 398.447 1003.8 401.167 1001.7 403.06C999.591 404.953 996.551 405.9 992.578 405.9C991.671 405.9 990.604 405.86 989.378 405.78C988.178 405.673 986.938 405.527 985.658 405.34V398.94C986.671 399.1 987.724 399.233 988.818 399.34C989.911 399.447 990.818 399.5 991.538 399.5C993.298 399.5 994.591 399.127 995.418 398.38C996.244 397.633 996.658 396.473 996.658 394.9C996.658 393.327 996.244 392.167 995.418 391.42C994.591 390.673 993.298 390.3 991.538 390.3C990.871 390.3 990.058 390.353 989.098 390.46C988.164 390.54 987.151 390.673 986.058 390.86L989.658 387.1V413.5H981.658V384.46ZM1008.22 413.5V384.3H1029.42V390.7H1016.22V395.42H1028.62V401.58H1016.22V407.1H1029.42V413.5H1008.22ZM1033.85 384.46C1034.99 384.353 1036.18 384.26 1037.41 384.18C1038.66 384.1 1039.86 384.033 1041.01 383.98C1042.15 383.927 1043.13 383.9 1043.93 383.9C1048.43 383.9 1051.74 384.7 1053.85 386.3C1055.98 387.873 1057.05 390.327 1057.05 393.66C1057.05 396.993 1055.98 399.46 1053.85 401.06C1051.74 402.633 1048.43 403.42 1043.93 403.42C1043.05 403.42 1042.05 403.393 1040.93 403.34C1039.83 403.287 1038.83 403.233 1037.93 403.18L1038.25 397.02C1039.23 397.18 1040.31 397.313 1041.49 397.42C1042.66 397.527 1043.61 397.58 1044.33 397.58C1045.9 397.58 1047.05 397.287 1047.77 396.7C1048.49 396.113 1048.85 395.193 1048.85 393.94C1048.85 392.687 1048.49 391.767 1047.77 391.18C1047.05 390.593 1045.9 390.3 1044.33 390.3C1043.61 390.3 1042.66 390.353 1041.49 390.46C1040.31 390.567 1039.23 390.7 1038.25 390.86L1041.85 387.1V413.5H1033.85V384.46ZM1049.93 413.5L1039.57 400.42H1048.29L1059.05 413.5H1049.93Z" fill="black"/>
</svg>
